<?xml version="1.0" encoding="UTF-8" standalone="no"?>
<svg id="svg4156" xmlns:rdf="http://www.w3.org/1999/02/22-rdf-syntax-ns#" xmlns="http://www.w3.org/2000/svg" 
height="100" 
viewBox="0 0 100 100" 
width="100" 
version="1.1" 
xmlns:cc="http://creativecommons.org/ns#" xmlns:dc="http://purl.org/dc/elements/1.1/">
<path id="path4166" 
d="m72.182 426.09c-1.9165-2.3092-0.5968-14.575 
3.1509-29.285 10.251-40.235 
4.3359-77.759-15.463-98.101l-6.2825-6.4546-4.9968 
0.65785c-10.855 1.4291-10.586 1.5068-10.918-3.1422-1.1136-15.586 12.546-17.076 25.483-2.7796 14.504 16.028 21.12 37.556 21.198 68.977 0.02963 12.004 1.5574 11.73 2.3455-0.4211 1.0766-16.6-1.3348-31.764-8.6088-54.133-1.3414-4.125-8.6255-19.734-16.187-34.688-27.992-55.355-37.098-89.657-31.522-118.75 3.4142-17.814 16.297-37.27 17.243-26.042 0.21392 2.5389-0.38003 4.152-2.5204 6.8454-9.4577 11.901-11.921 50.887-4.6937 74.286 2.024 6.5531 42.304 88.327 42.79 86.87 0.54505-1.6351-5.2882-16.097-16.256-40.301-28.1-62.013-27.594-104.1 1.2736-105.95 15.667-1.0049 16.278 10.324 0.94916 17.584-21.277 10.078-19.704 35.106 6.0987 97.018 15.81 37.936 17.976 48.88 17.999 90.938l0.01651 30-5.4618 16.406c-10.512 31.57-12.118 34.7-15.638 30.46zm-18.486-307.64c-13.109-4.64-15.653-23.896-3.459-26.183 11.286-2.1173 28.218 17.295 22.368 25.646-1.7909 2.5569-12.358 2.857-18.91 0.53702zm-30.258-0.5c-3.286-0.94-5.579-2.52-17.201-11.86l-6.2236-5 6.3214-7.138c14.925-16.852 19.148-19.832 28.161-19.869 5.3172-0.02205 9.4585 2.6632 9.6617 6.2649 0.66339 11.756-3.6878 15.528-19.314 16.741-4.6406 0.36049-9.7031 1.2342-11.25 1.9415-3.0152 1.3787-1.4392 1.3536 16.434-0.26237 7.3398-0.66362 7.6997-0.34928 9.2807 8.1064 0.62665 3.3516 1.3511 6.985 1.61 8.0744 0.80229 3.3763-9.8086 5.2004-17.48 3.0051zm63.047-0.28963c-8.311-3.61 1.594-16.68 14.005-18.475 12.89-1.865 12.52-4.497-0.634-4.497h-9.832l-2.3555-3.7314c-8.7288-13.827 7.1977-23.813 22.126-13.873 19.657 13.089 19.717 20.059 0.32305 37.131-5.6957 5.0136-16.43 6.5811-23.632 3.4508zm-9.7582-6.7833c-6.808-7.9889-6.7499-10.917 0.32578-16.431 10.89-8.4874 12.306 5.623 1.7434 17.369-0.35871 0.39889-1.2898-0.023-2.0692-0.9375zm-18.592-20.213c-9.3128-3.5228-10.4-5.2655-4.9913-8.002 15.561-7.8732 33.585-1.2532 22.181 8.1467-4.5153 3.7219-7.0241 3.7008-17.19-0.14474zm-8.447-14.014c-7.474-3.859-6.457-17.553 1.925-25.935 8.573-8.572 15.966-14.179 17.566-13.322 14.957 8.012 24.027 29.641 16.021 38.203-6.156 6.584-16.762-2.42-16.762-14.229 0-14.94-2.7032-14.288-3.0197 0.72815-0.25726 12.206-0.30032 12.429-2.6053 13.515-3.9201 1.8477-10.543 2.372-13.125 1.0391zm4.1246-36.341c-0.60805-0.60805-0.56186-4.0319 0.13485-9.9968 1.879-16.092-0.566-23.862-6.639-21.095-7.26 3.308-12.517-1.1859-8.35-7.1364 3.37-4.8103 18.323-1.8868 22.195 4.3391 5.339 8.5863-1.425 39.806-7.342 33.889z"
/>
</svg>
