<?xml version="1.0" encoding="UTF-8" standalone="no"?>
<svg
   xmlns:dc="http://purl.org/dc/elements/1.1/"
   xmlns:cc="http://creativecommons.org/ns#"
   xmlns:rdf="http://www.w3.org/1999/02/22-rdf-syntax-ns#"
   xmlns:svg="http://www.w3.org/2000/svg"
   xmlns="http://www.w3.org/2000/svg"
   xmlns:sodipodi="http://sodipodi.sourceforge.net/DTD/sodipodi-0.dtd"
   xmlns:inkscape="http://www.inkscape.org/namespaces/inkscape"
   viewBox="0 0 500 700"
   version="1.1"
   id="svg98"
   sodipodi:docname="spline.svg"
   inkscape:version="1.0.2 (394de47547, 2021-03-26)"
   width="500"
   height="700">
  <metadata
     id="metadata9">
    <rdf:RDF>
      <cc:Work
         rdf:about="">
        <dc:format>image/svg+xml</dc:format>
        <dc:type
           rdf:resource="http://purl.org/dc/dcmitype/StillImage" />
        <dc:title></dc:title>
      </cc:Work>
    </rdf:RDF>
  </metadata>
  <defs
     id="defs7">
    <marker
       style="overflow:visible"
       id="DiamondS"
       refX="0.0"
       refY="0.0"
       orient="auto"
       inkscape:stockid="DiamondS"
       inkscape:isstock="true">
      <path
         transform="scale(0.2)"
         style="fill-rule:evenodd;stroke:#f9f6fb;stroke-width:1pt;stroke-opacity:1;fill:#f9f6fb;fill-opacity:1"
         d="M 0,-7.0710768 L -7.0710894,0 L 0,7.0710589 L 7.0710462,0 L 0,-7.0710768 z "
         id="path921" />
    </marker>
    <marker
       style="overflow:visible"
       id="EmptyTriangleOutM"
       refX="0.0"
       refY="0.0"
       orient="auto"
       inkscape:stockid="EmptyTriangleOutM"
       inkscape:isstock="true">
      <path
         transform="scale(0.4) translate(-4.5,0)"
         style="fill-rule:evenodd;fill:#ffffff;stroke:#f9f6fb;stroke-width:1pt;stroke-opacity:1"
         d="M 5.77,0.0 L -2.88,5.0 L -2.88,-5.0 L 5.77,0.0 z "
         id="path999" />
    </marker>
    <marker
       style="overflow:visible"
       id="DotS"
       refX="0.0"
       refY="0.0"
       orient="auto"
       inkscape:stockid="DotS"
       inkscape:isstock="true">
      <path
         transform="scale(0.2) translate(7.4, 1)"
         style="fill-rule:evenodd;stroke:#000000;stroke-width:1pt;stroke-opacity:1;fill:#000000;fill-opacity:1"
         d="M -2.5,-1.0 C -2.5,1.7600000 -4.7400000,4.0 -7.5,4.0 C -10.260000,4.0 -12.5,1.7600000 -12.5,-1.0 C -12.5,-3.7600000 -10.260000,-6.0 -7.5,-6.0 C -4.7400000,-6.0 -2.5,-3.7600000 -2.5,-1.0 z "
         id="path903" />
    </marker>
    <marker
       style="overflow:visible;"
       id="Arrow1Send"
       refX="0.0"
       refY="0.0"
       orient="auto"
       inkscape:stockid="Arrow1Send"
       inkscape:isstock="true">
      <path
         transform="scale(0.2) rotate(180) translate(6,0)"
         style="fill-rule:evenodd;stroke:#000000;stroke-width:1pt;stroke-opacity:1;fill:#000000;fill-opacity:1"
         d="M 0.0,0.0 L 5.0,-5.0 L -12.5,0.0 L 5.0,5.0 L 0.0,0.0 z "
         id="path851" />
    </marker>
    <marker
       style="overflow:visible;"
       id="Arrow1Mend"
       refX="0.0"
       refY="0.0"
       orient="auto"
       inkscape:stockid="Arrow1Mend"
       inkscape:isstock="true">
      <path
         transform="scale(0.4) rotate(180) translate(10,0)"
         style="fill-rule:evenodd;stroke:#000000;stroke-width:1pt;stroke-opacity:1;fill:#000000;fill-opacity:1"
         d="M 0.0,0.0 L 5.0,-5.0 L -12.5,0.0 L 5.0,5.0 L 0.0,0.0 z "
         id="path845" />
    </marker>
    <marker
       style="overflow:visible;"
       id="Arrow1Lend"
       refX="0.0"
       refY="0.0"
       orient="auto"
       inkscape:stockid="Arrow1Lend"
       inkscape:isstock="true">
      <path
         transform="scale(0.8) rotate(180) translate(12.5,0)"
         style="fill-rule:evenodd;stroke:#000000;stroke-width:1pt;stroke-opacity:1;fill:#000000;fill-opacity:1"
         d="M 0.0,0.0 L 5.0,-5.0 L -12.5,0.0 L 5.0,5.0 L 0.0,0.0 z "
         id="path839" />
    </marker>
  </defs>
  <sodipodi:namedview
     pagecolor="#ffffff"
     bordercolor="#666666"
     borderopacity="1"
     objecttolerance="10"
     gridtolerance="10"
     guidetolerance="10"
     inkscape:pageopacity="0"
     inkscape:pageshadow="2"
     inkscape:window-width="1920"
     inkscape:window-height="1017"
     id="namedview5"
     showgrid="false"
     inkscape:zoom="3.2931247"
     inkscape:cx="270.54109"
     inkscape:cy="413.15834"
     inkscape:window-x="0"
     inkscape:window-y="30"
     inkscape:window-maximized="1"
     inkscape:current-layer="svg98"
     inkscape:pagecheckerboard="true"
     showborder="true"
     inkscape:showpageshadow="true" />
  <path
     style="fill:#ff0000;stroke:none;stroke-width:4;stroke-miterlimit:3.6;stroke-dasharray:16, 16;stroke-dashoffset:0;stroke-opacity:1"
     id="path1730"
     d="m 247.0151,305.19928 c 2.89448,3.52814 4.98449,7.58714 7.02693,11.63984 1.73348,3.40058 3.1371,6.94911 4.96772,10.29961 1.21511,2.09532 2.5505,4.1168 3.80708,6.18669 l 10.3538,-0.57142 v 0 c 0,0 -2.60782,-4.08405 -3.89294,-6.13825 -1.8888,-3.31471 -3.28353,-6.85808 -5.00369,-10.25922 -2.09726,-4.07078 -4.30605,-8.07503 -6.8974,-11.85824 z"
     sodipodi:nodetypes="cccccscccc" />
  <path
     style="fill:#ff0000;stroke:none;stroke-width:4;stroke-miterlimit:3.6;stroke-dasharray:16, 16;stroke-dashoffset:0;stroke-opacity:1"
     id="path1732"
     d="m 279.73096,308.4556 c -2.354,-0.78724 -4.68763,-1.4819 -7.16919,-1.67321 -8.6165,-0.21222 -12.60661,-0.77595 -19.26613,3.03388 -2.41135,1.59955 -4.66213,3.43317 -6.85984,5.31225 -2.20881,1.57385 -4.05718,3.47117 -5.80101,5.53357 -1.17339,1.54127 -2.26192,3.14534 -3.36368,4.73813 l 10.34876,0.61956 v 0 c 1.05698,-1.57638 2.11534,-3.15635 3.32406,-4.62258 1.75457,-1.99236 3.70021,-3.74078 5.79654,-5.36993 2.18458,-1.81832 4.38127,-3.6491 6.82761,-5.11035 1.35428,-0.71645 2.68228,-1.34868 4.15993,-1.77796 3.6554,-1.06195 10.69668,-1.01668 -5.38397,-0.77373 2.43652,-0.0262 4.72882,0.53073 6.9926,1.42842 z"
     sodipodi:nodetypes="cccccccscccsccc" />
</svg>
